<svg width="15" height="15" viewBox="0 0 15 15" fill="none" xmlns="http://www.w3.org/2000/svg">
<path id="Vector" d="M1.91072 7.14196C2.35006 7.15049 2.67469 7.28352 2.94985 7.54022C3.77118 8.30605 4.59196 9.07244 5.41218 9.83941C5.69233 10.1012 5.83074 10.0953 6.08471 9.79975C8.62795 6.85157 11.1711 3.9034 13.714 0.955221C13.8387 0.808963 13.9821 0.720697 14.1783 0.78082C14.3558 0.8354 14.4651 0.963749 14.4747 1.14881C14.4749 1.25301 14.4461 1.35511 14.3915 1.44303C13.5181 2.89509 12.6416 4.34487 11.7621 5.79238C10.1117 8.52138 8.46169 11.249 6.8121 13.9751C6.52322 14.4527 6.12128 14.7346 5.56514 14.738C5.36952 14.742 5.17566 14.6993 4.99886 14.6133C4.82206 14.5274 4.66716 14.4004 4.54637 14.2425C3.30468 12.687 2.06631 11.1286 0.831262 9.56736C0.453018 9.0868 0.40023 8.53588 0.665001 7.98027C0.929772 7.42466 1.38325 7.16669 1.91072 7.14196Z" fill="#1A3F70"/>
</svg>
