<svg width="24" height="24" viewBox="0 0 24 24" fill="none" xmlns="http://www.w3.org/2000/svg">
<g id="Frame">
<path id="Vector" d="M11.9926 10.1104L11.9926 12.9437L11.9926 15.777" stroke="#FF4747" stroke-width="1.41667" stroke-linecap="round" stroke-linejoin="round"/>
<path id="Vector_2" d="M16.2499 10.1104L16.2499 12.9437L16.2499 15.777" stroke="#FF4747" stroke-width="1.41667" stroke-linecap="round" stroke-linejoin="round"/>
<path id="Vector_3" d="M7.74988 10.1104L7.74988 12.9437L7.74988 15.777" stroke="#FF4747" stroke-width="1.41667" stroke-linecap="round" stroke-linejoin="round"/>
<path id="Vector_4" d="M3.53707 4.72115C3.51374 4.5462 3.57476 4.37121 3.71853 4.26884C4.37575 3.80091 6.63013 2.55469 12.0001 2.55469C17.37 2.55469 19.6244 3.8009 20.2816 4.26884C20.4254 4.37121 20.4864 4.5462 20.463 4.72115L18.8582 16.7571C18.7026 17.925 18.0109 18.9533 16.988 19.5378L16.6858 19.7104C13.7823 21.3696 10.2178 21.3696 7.3143 19.7104L7.01219 19.5378C5.98923 18.9533 5.29757 17.925 5.14186 16.7571L3.53707 4.72115Z" stroke="#FF4747" stroke-width="1.41667"/>
<path id="Vector_5" d="M3.49988 5.38867C5.92845 7.90718 18.0713 7.90715 20.4999 5.38867" stroke="#FF4747" stroke-width="1.41667"/>
</g>
</svg>
