<svg width="15" height="15" viewBox="0 0 15 15" fill="none" xmlns="http://www.w3.org/2000/svg">
<path id="Vector" d="M1.78572 7.01696C2.22506 7.02549 2.54969 7.15852 2.82485 7.41522C3.64618 8.18105 4.46696 8.94744 5.28718 9.71441C5.56733 9.97622 5.70574 9.97025 5.95971 9.67475C8.50295 6.72657 11.0461 3.7784 13.589 0.830221C13.7137 0.683963 13.8571 0.595697 14.0533 0.65582C14.2308 0.7104 14.3401 0.838749 14.3497 1.02381C14.3499 1.12801 14.3211 1.23011 14.2665 1.31803C13.3931 2.77009 12.5166 4.21987 11.6371 5.66738C9.98669 8.39638 8.33669 11.124 6.6871 13.8501C6.39822 14.3277 5.99628 14.6096 5.44014 14.613C5.24452 14.617 5.05066 14.5743 4.87386 14.4883C4.69706 14.4024 4.54216 14.2754 4.42137 14.1175C3.17968 12.562 1.94131 11.0036 0.706262 9.44236C0.328018 8.9618 0.27523 8.41088 0.540001 7.85527C0.804772 7.29966 1.25825 7.04169 1.78572 7.01696Z" fill="white"/>
</svg>
